<svg xmlns="http://www.w3.org/2000/svg" viewBox="0 0 512 512" width="512" height="512">
  <!-- Background -->
  <rect width="512" height="512" rx="96" fill="#006666"/>

  <!-- Outer compass ring -->
  <circle cx="256" cy="256" r="168" fill="none" stroke="#FDFCF0" stroke-width="8" opacity="0.4"/>

  <!-- Compass cardinal points (N/S/E/W) - diamond shapes -->
  <!-- North -->
  <polygon points="256,88 268,200 256,216 244,200" fill="#FDFCF0"/>
  <!-- South -->
  <polygon points="256,424 268,312 256,296 244,312" fill="#FDFCF0" opacity="0.7"/>
  <!-- East -->
  <polygon points="424,256 312,268 296,256 312,244" fill="#FDFCF0" opacity="0.7"/>
  <!-- West -->
  <polygon points="88,256 200,268 216,256 200,244" fill="#FDFCF0" opacity="0.7"/>

  <!-- Inner tick marks for intercardinal directions -->
  <g stroke="#FDFCF0" stroke-width="5" opacity="0.4">
    <line x1="256" y1="95" x2="256" y2="115" transform="rotate(45 256 256)"/>
    <line x1="256" y1="95" x2="256" y2="115" transform="rotate(135 256 256)"/>
    <line x1="256" y1="95" x2="256" y2="115" transform="rotate(225 256 256)"/>
    <line x1="256" y1="95" x2="256" y2="115" transform="rotate(315 256 256)"/>
  </g>

  <!-- Camera aperture in the center -->
  <circle cx="256" cy="256" r="52" fill="#006666" stroke="#FDFCF0" stroke-width="6"/>
  <!-- Aperture blades (6 blades) -->
  <g fill="#FDFCF0">
    <ellipse cx="256" cy="228" rx="8" ry="22" transform="rotate(0 256 256)"/>
    <ellipse cx="256" cy="228" rx="8" ry="22" transform="rotate(60 256 256)"/>
    <ellipse cx="256" cy="228" rx="8" ry="22" transform="rotate(120 256 256)"/>
    <ellipse cx="256" cy="228" rx="8" ry="22" transform="rotate(180 256 256)"/>
    <ellipse cx="256" cy="228" rx="8" ry="22" transform="rotate(240 256 256)"/>
    <ellipse cx="256" cy="228" rx="8" ry="22" transform="rotate(300 256 256)"/>
  </g>
  <!-- Center dot -->
  <circle cx="256" cy="256" r="10" fill="#FDFCF0"/>
</svg>
